<svg width="48" height="48" viewBox="0 0 48 48" fill="none" xmlns="http://www.w3.org/2000/svg">
  <rect width="48" height="48" rx="12" fill="#4648D4"/>
  <path d="M23 15.5c-2.7-1.6-6.7-2.1-9.7-1.4a1.2 1.2 0 0 0-.95 1.18v11.3a1 1 0 0 0 1.24.97c2.5-.57 5.9-.2 8.41 1.2Z" fill="#F8F9FF"/>
  <path d="M25 15.5c2.7-1.6 6.7-2.1 9.7-1.4a1.2 1.2 0 0 1 .95 1.18v11.3a1 1 0 0 1-1.24.97c-2.5-.57-5.9-.2-8.41 1.2Z" fill="#F8F9FF"/>
  <rect x="15" y="31.4" width="18" height="2.8" rx="1.4" fill="#6CF8BB"/>
</svg>
